<?xml version="1.0" encoding="iso-8859-1"?>
<!-- Generator: Adobe Illustrator 18.1.1, SVG Export Plug-In . SVG Version: 6.00 Build 0)  -->
<svg xmlns="http://www.w3.org/2000/svg" xmlns:xlink="http://www.w3.org/1999/xlink" version="1.1" id="Capa_1" x="0px" y="0px" viewBox="0 0 591.6 591.6" style="enable-background:new 0 0 591.6 591.6;" xml:space="preserve" width="512px" height="512px">
<g>
	<g>
		<path d="M581.4,530.4h-74.052L346.392,7.14C344.964,2.856,341.088,0,336.6,0H255c-4.488,0-8.364,2.856-9.792,7.14L84.252,530.4    H10.2c-5.712,0-10.2,4.488-10.2,10.2v40.8c0,5.712,4.488,10.2,10.2,10.2h571.2c5.712,0,10.2-4.488,10.2-10.2v-40.8    C591.6,534.888,587.112,530.4,581.4,530.4z M232.764,117.3h126.072l28.152,91.8h-182.58L232.764,117.3z M201.348,219.3h188.904    l28.152,91.8H172.992L201.348,219.3z M169.932,321.3h251.736l28.152,91.8H141.78L169.932,321.3z M138.516,423.3h314.568    l28.152,91.8H110.364L138.516,423.3z M262.548,20.4h66.504l26.724,86.7H235.824L262.548,20.4z M571.2,571.2H20.4v-20.4h71.4    c4.488,0,8.364-2.856,9.792-7.14l5.712-18.36H484.5l5.712,18.36c1.224,4.284,5.304,7.14,9.792,7.14h71.4v20.4H571.2z" fill="#FFFFFF"/>
	</g>
</g>
<g>
</g>
<g>
</g>
<g>
</g>
<g>
</g>
<g>
</g>
<g>
</g>
<g>
</g>
<g>
</g>
<g>
</g>
<g>
</g>
<g>
</g>
<g>
</g>
<g>
</g>
<g>
</g>
<g>
</g>
</svg>
